<svg id="a6b309da-c9c4-4f74-ae7a-6d73dde91034" data-name="Layer 1" xmlns="http://www.w3.org/2000/svg" width="450" height="120" viewBox="0 0 450 120"><defs><style>.a17df82b-55fd-49af-831a-051e33f5bc75,.a682fa04-ca8d-45ea-b687-aa8bf00d05a6{fill:#00ab4e;}.a17df82b-55fd-49af-831a-051e33f5bc75{opacity:0.5;}</style></defs><title>buset</title><path class="a682fa04-ca8d-45ea-b687-aa8bf00d05a6" d="M221.52,60.08a25.43,25.43,0,0,1-.71,6.71A28.77,28.77,0,0,1,218.5,73a27.17,27.17,0,0,1-3.74,5.53,25.85,25.85,0,0,1-5.07,4.48A27.19,27.19,0,0,1,183,85.15a28.19,28.19,0,0,1-5.75-3.73,27.27,27.27,0,0,1-4.62-5,29.13,29.13,0,0,1-3.27-6,24.14,24.14,0,0,1-1.64-6.67c0-.44-.1-.88-.12-1.3s0-.85,0-1.3V25.71A5,5,0,0,1,169.06,22a5.32,5.32,0,0,1,7.43,0A5,5,0,0,1,178,25.71V39.46a29,29,0,0,1,9.44-4.65A26.08,26.08,0,0,1,198,34a27.18,27.18,0,0,1,10,3.31,26,26,0,0,1,8,6.92,27.41,27.41,0,0,1,4,7.5A28.38,28.38,0,0,1,221.52,60.08ZM208.11,70.23a16.68,16.68,0,0,0,1.43-16.48,17.85,17.85,0,0,0-3.52-5,14.77,14.77,0,0,0-2.3-1.76c-.81-.51-1.66-1-2.55-1.43a16,16,0,0,0-6.61-1.42,16.27,16.27,0,0,0-12.15,5.28,16.54,16.54,0,0,0-3.52,5.7,16.18,16.18,0,0,0-.63,8.72,17.13,17.13,0,0,0,3.81,7.88,14.4,14.4,0,0,0,5.37,4,14.75,14.75,0,0,0,1.55.75c.53.23,1.08.45,1.63.67-.44-.16-.89-.34-1.34-.54s-.89-.4-1.34-.63a15.52,15.52,0,0,0,10.88.76,16.36,16.36,0,0,0,5.23-2.44A16,16,0,0,0,208.11,70.23Z"/><path class="a682fa04-ca8d-45ea-b687-aa8bf00d05a6" d="M277.52,33.68a4.92,4.92,0,0,1,3.69,1.55A5.12,5.12,0,0,1,282.72,39V60.75a25.77,25.77,0,0,1-2.14,10.44,27.25,27.25,0,0,1-14.33,14.34,26.85,26.85,0,0,1-21,0A27.32,27.32,0,0,1,231,71.19a25.93,25.93,0,0,1-2.13-10.44V39a5.29,5.29,0,0,1,5.28-5.28,5,5,0,0,1,3.69,1.54,5.19,5.19,0,0,1,1.5,3.73V60.7a15.88,15.88,0,0,0,1.3,6.4,17.11,17.11,0,0,0,3.53,5.23,16.27,16.27,0,0,0,11.69,4.85,16,16,0,0,0,6.37-1.29A16.87,16.87,0,0,0,271,67.1a15.88,15.88,0,0,0,1.29-6.4h-.08V39a5.27,5.27,0,0,1,5.28-5.27Z"/><path class="a682fa04-ca8d-45ea-b687-aa8bf00d05a6" d="M330.34,71.61a15.67,15.67,0,0,1-1.25,6.19,16.54,16.54,0,0,1-3.37,5.1,16.06,16.06,0,0,1-5,3.47,15.16,15.16,0,0,1-6.19,1.29H291.35a5.13,5.13,0,0,1-3.73-1.53,5.2,5.2,0,0,1,0-7.41,5.14,5.14,0,0,1,3.73-1.54h23a5.29,5.29,0,0,0,3.9-1.64,5.4,5.4,0,0,0,1.64-3.93,5.48,5.48,0,0,0-1.64-4,5.3,5.3,0,0,0-3.9-1.65H303.43a15.74,15.74,0,0,1-6.29-1.26A16,16,0,0,1,292,61.26a16.13,16.13,0,0,1-3.44-5.12,16.31,16.31,0,0,1,0-12.57A16.13,16.13,0,0,1,292,38.45,16.74,16.74,0,0,1,297.1,35a15,15,0,0,1,6.24-1.3H314a5.12,5.12,0,0,1,3.73,1.53,5.19,5.19,0,0,1,0,7.41A5.13,5.13,0,0,1,314,44.16H303.28a5.53,5.53,0,0,0-3.87,1.7,5.75,5.75,0,0,0,0,8,5.23,5.23,0,0,0,3.94,1.66h10.9a15.46,15.46,0,0,1,6.29,1.3,16.68,16.68,0,0,1,5.11,3.47,16.21,16.21,0,0,1,3.44,5.1A15.68,15.68,0,0,1,330.34,71.61Z"/><path class="a682fa04-ca8d-45ea-b687-aa8bf00d05a6" d="M390.19,60.75a5.21,5.21,0,0,1-1.63,3.69,5.5,5.5,0,0,1-3.73,1.6H347.52a13.77,13.77,0,0,0,.92,2.09q.42.84.84,1.59l.84,1.51c-.28-.44-.53-.88-.75-1.3s-.45-.85-.67-1.3A17,17,0,0,0,352.13,73a15.81,15.81,0,0,0,4.7,3A17.8,17.8,0,0,0,363,77.35h.33a5,5,0,0,1,5.12,5.12,5.1,5.1,0,0,1-1.47,3.69,4.89,4.89,0,0,1-3.65,1.5h-1a4.18,4.18,0,0,1-.88-.08,26.66,26.66,0,0,1-6.88-1.42,29.19,29.19,0,0,1-6.24-3.07,26.29,26.29,0,0,1-5.24-4.48,25.56,25.56,0,0,1-3.94-5.78,27,27,0,0,1-2.81-13.29,26.3,26.3,0,0,1,4-12.95c.23-.34.46-.69.72-1.05s.51-.71.79-1a25.52,25.52,0,0,1,7.55-6.83,28.34,28.34,0,0,1,9.47-3.56,27.3,27.3,0,0,1,12.74,1,25.67,25.67,0,0,1,10.82,6.71,27.77,27.77,0,0,1,5.74,8.55,25.18,25.18,0,0,1,2.05,10.06v.33ZM354.4,46.67a16.55,16.55,0,0,0-4.19,3.9,17.63,17.63,0,0,0-2.69,5H379a18.62,18.62,0,0,0-1.17-2.69,15.85,15.85,0,0,0-4.32-5.15,16.86,16.86,0,0,0-6.08-3.06,15.43,15.43,0,0,0-6.7-.38A16.86,16.86,0,0,0,354.4,46.67Z"/><path class="a682fa04-ca8d-45ea-b687-aa8bf00d05a6" d="M438.9,35.23A5.12,5.12,0,0,1,440.41,39a5.16,5.16,0,0,1-5.2,5.2H421.8V82.47a5,5,0,0,1-1.55,3.69,5.19,5.19,0,0,1-3.73,1.5,5.14,5.14,0,0,1-5.2-5.19V44.16H397.91a5.16,5.16,0,0,1-5.2-5.2,5.12,5.12,0,0,1,1.51-3.73,4.91,4.91,0,0,1,3.69-1.55h37.3A4.94,4.94,0,0,1,438.9,35.23Z"/><path class="a682fa04-ca8d-45ea-b687-aa8bf00d05a6" d="M119.06,61.46l-8-18.61A34.6,34.6,0,0,0,65.76,24.77l-20,8.6C33.48,25,18.42,16.45,12.28,20c-11.12,6.41,22,77.87,22,77.87A34.6,34.6,0,0,0,79.62,116L101,106.77A34.6,34.6,0,0,0,119.06,61.46ZM81.86,71.92c-1.47,8.77-9.3,10.26-15,10.14a6.29,6.29,0,0,1-6.14-6.3V68.7a6.3,6.3,0,0,1,5.78-6.27C73.29,61.81,83.44,62.42,81.86,71.92Z"/><path class="a17df82b-55fd-49af-831a-051e33f5bc75" d="M79.28,26.8H57.5C49.54,14.27,39.07.48,32,1.3c-12.75,1.5-10.5,80.25-10.5,80.25A34.61,34.61,0,0,0,56,116.05H79.28a34.61,34.61,0,0,0,34.5-34.5V61.3A34.61,34.61,0,0,0,79.28,26.8Zm2.58,45.12c-1.47,8.77-9.3,10.26-15,10.14a6.29,6.29,0,0,1-6.14-6.3V68.7a6.3,6.3,0,0,1,5.78-6.27C73.29,61.81,83.44,62.42,81.86,71.92Z"/></svg>