<svg id="ba86ca35-8d61-4e02-95d5-3b98330dea49" data-name="Layer 1" xmlns="http://www.w3.org/2000/svg" width="92" height="92" viewBox="0 0 92 92"><defs><style>.a489b3c9-5f67-416e-96da-f7870b682f22{fill:#0daa4c;}.b28ed105-d54b-4fcc-9bbb-3895ba13db2d{fill:#fff;}</style></defs><title>butuh-custom</title><circle class="a489b3c9-5f67-416e-96da-f7870b682f22" cx="46" cy="46" r="45.5"/><path class="b28ed105-d54b-4fcc-9bbb-3895ba13db2d" d="M46,24.46A12.68,12.68,0,0,0,33.33,37.12a4.23,4.23,0,1,0,8.45,0A4.22,4.22,0,1,1,46,41.35a4.22,4.22,0,0,0-4.22,4.22v6a4.22,4.22,0,0,0,8.44,0V49.07A12.67,12.67,0,0,0,46,24.46Zm2.46,22.2A1.42,1.42,0,0,0,47.41,48v3.59a1.41,1.41,0,0,1-2.82,0v-6A1.41,1.41,0,0,1,46,44.16a7,7,0,1,0-7-7,1.41,1.41,0,1,1-2.81,0,9.85,9.85,0,1,1,12.31,9.54Z"/><path class="b28ed105-d54b-4fcc-9bbb-3895ba13db2d" d="M49,60.34a4.24,4.24,0,1,0,1.23,3A4.26,4.26,0,0,0,49,60.34Zm-2,4a1.4,1.4,0,0,1-2,0,1.43,1.43,0,0,1-.41-1,1.42,1.42,0,0,1,.42-1,1.43,1.43,0,0,1,1-.41,1.4,1.4,0,0,1,1,.42,1.42,1.42,0,0,1,.42,1A1.44,1.44,0,0,1,47,64.32Z"/></svg>