<svg id="e699d16f-079a-4b3d-9dbf-c980570e0784" data-name="Layer 1" xmlns="http://www.w3.org/2000/svg" xmlns:xlink="http://www.w3.org/1999/xlink" width="409.6" height="409.6" viewBox="0 0 409.6 409.6"><defs><style>.fa5730e7-38cf-49d0-98eb-b8db6a42c64f{fill:#07aa4d;}.f2cebabe-fc0b-4003-b9a4-f876b47141a8{fill:url(#bd2f2553-260f-4c63-ae28-3357cf65b32f);}.e26a0b15-2c67-453c-b9ef-6bdfd03f7ae3{fill:url(#e5f6360a-e3fd-4e08-8d47-edcdc8225748);}</style><linearGradient id="bd2f2553-260f-4c63-ae28-3357cf65b32f" x1="108.81" y1="23.45" x2="108.81" y2="385.33" gradientTransform="matrix(1, 0, 0, -1, 0, 410.4)" gradientUnits="userSpaceOnUse"><stop offset="0" stop-color="#79c36b"/><stop offset="1" stop-color="#45b25c"/></linearGradient><linearGradient id="e5f6360a-e3fd-4e08-8d47-edcdc8225748" x1="145.28" y1="23.45" x2="145.28" y2="385.33" xlink:href="#bd2f2553-260f-4c63-ae28-3357cf65b32f"/></defs><title>chat</title><path class="fa5730e7-38cf-49d0-98eb-b8db6a42c64f" d="M372.05,121.53H288.79V62.07a35.72,35.72,0,0,0-35.67-35.68H37.45A35.66,35.66,0,0,0,1.77,62.07V204.79a35.66,35.66,0,0,0,35.68,35.68h11.9v35.67a11.93,11.93,0,0,0,18.53,9.92l52.83-35.29v49.16a35.66,35.66,0,0,0,35.68,35.68H273.33l68.39,45.59a11.94,11.94,0,0,0,18.53-9.91V335.61h11.9a35.66,35.66,0,0,0,35.68-35.68V157.21A35.88,35.88,0,0,0,372.05,121.53ZM126,218.66h0L73.13,253.94V228.57a11.92,11.92,0,0,0-11.89-11.89H37.45a11.92,11.92,0,0,1-11.89-11.89V62.07A11.92,11.92,0,0,1,37.45,50.18H253.12A11.92,11.92,0,0,1,265,62.07V204.79a11.92,11.92,0,0,1-11.89,11.89H132.6A12.35,12.35,0,0,0,126,218.66Zm258,81.27a11.92,11.92,0,0,1-11.89,11.89H348.26a11.93,11.93,0,0,0-11.89,11.9v25.37l-52.83-35.28a12.11,12.11,0,0,0-6.64-2H156.39a11.93,11.93,0,0,1-11.9-11.89V240.47H253.12a35.72,35.72,0,0,0,35.67-35.68V145.32h83.26a11.92,11.92,0,0,1,11.89,11.89V299.93Z"/><path class="f2cebabe-fc0b-4003-b9a4-f876b47141a8" d="M156.39,145.32H61.24a11.9,11.9,0,0,0,0,23.79h95.15a11.9,11.9,0,0,0,0-23.79Z"/><path class="e26a0b15-2c67-453c-b9ef-6bdfd03f7ae3" d="M229.33,97.75H61.24a11.89,11.89,0,0,0,0,23.78H229.33a11.89,11.89,0,0,0,0-23.78Z"/></svg>