<?xml version="1.0" encoding="utf-8"?>
<svg viewBox="0 0 50 50" width="50px" height="50px" xmlns="http://www.w3.org/2000/svg">
  <path id="path42" style="fill: rgb(255, 255, 255); fill-opacity: 1; fill-rule: nonzero; stroke: none;" d="M 24.968 11.347 C 21.284 11.347 20.823 11.363 19.376 11.43 C 17.933 11.494 16.948 11.725 16.085 12.062 C 15.193 12.408 14.437 12.874 13.683 13.63 C 12.928 14.387 12.465 15.144 12.119 16.038 C 11.783 16.904 11.554 17.892 11.489 19.34 C 11.423 20.791 11.407 21.253 11.407 24.947 C 11.407 28.64 11.423 29.103 11.489 30.554 C 11.554 32.003 11.783 32.991 12.119 33.855 C 12.465 34.749 12.928 35.508 13.683 36.265 C 14.437 37.021 15.193 37.486 16.085 37.833 C 16.948 38.169 17.933 38.399 19.376 38.465 C 20.823 38.532 21.284 38.547 24.968 38.547 C 28.652 38.547 29.113 38.532 30.56 38.465 C 32.003 38.399 32.989 38.169 33.851 37.833 C 34.743 37.486 35.499 37.021 36.252 36.265 C 37.008 35.508 37.471 34.749 37.817 33.855 C 38.153 32.991 38.382 32.003 38.447 30.554 C 38.513 29.103 38.529 28.64 38.529 24.947 C 38.529 21.253 38.513 20.791 38.447 19.34 C 38.382 17.892 38.153 16.904 37.817 16.038 C 37.471 15.144 37.008 14.387 36.252 13.63 C 35.499 12.874 34.743 12.408 33.851 12.062 C 32.989 11.725 32.003 11.494 30.56 11.43 C 29.113 11.363 28.652 11.347 24.968 11.347 M 24.968 13.797 C 28.588 13.797 29.018 13.812 30.447 13.877 C 31.77 13.938 32.488 14.159 32.966 14.346 C 33.6 14.592 34.05 14.886 34.526 15.362 C 35 15.838 35.294 16.292 35.54 16.926 C 35.725 17.406 35.946 18.125 36.006 19.452 C 36.071 20.886 36.087 21.317 36.087 24.947 C 36.087 28.579 36.071 29.009 36.006 30.443 C 35.946 31.769 35.725 32.489 35.54 32.968 C 35.294 33.603 35 34.055 34.526 34.533 C 34.05 35.008 33.6 35.302 32.966 35.55 C 32.488 35.735 31.77 35.958 30.447 36.016 C 29.018 36.083 28.589 36.096 24.968 36.096 C 21.347 36.096 20.918 36.083 19.488 36.016 C 18.166 35.958 17.447 35.735 16.969 35.55 C 16.336 35.302 15.886 35.008 15.41 34.533 C 14.936 34.055 14.642 33.603 14.395 32.968 C 14.211 32.489 13.99 31.769 13.929 30.443 C 13.864 29.009 13.849 28.579 13.849 24.947 C 13.849 21.317 13.864 20.886 13.929 19.452 C 13.99 18.125 14.211 17.406 14.395 16.926 C 14.642 16.292 14.936 15.838 15.41 15.362 C 15.886 14.886 16.336 14.592 16.969 14.346 C 17.447 14.159 18.166 13.938 19.488 13.877 C 20.918 13.812 21.348 13.797 24.968 13.797"/>
  <path id="path44" style="fill: rgb(255, 255, 255); fill-opacity: 1; fill-rule: nonzero; stroke: none;" d="M 24.968 29.481 C 22.471 29.481 20.447 27.451 20.447 24.947 C 20.447 22.443 22.471 20.415 24.968 20.415 C 27.466 20.415 29.489 22.443 29.489 24.947 C 29.489 27.451 27.466 29.481 24.968 29.481 M 24.968 17.964 C 21.123 17.964 18.004 21.09 18.004 24.947 C 18.004 28.804 21.123 31.931 24.968 31.931 C 28.814 31.931 31.933 28.804 31.933 24.947 C 31.933 21.09 28.814 17.964 24.968 17.964"/>
  <path id="path46" style="fill: rgb(255, 255, 255); fill-opacity: 1; fill-rule: nonzero; stroke: none;" d="M 33.834 17.687 C 33.834 18.589 33.106 19.32 32.206 19.32 C 31.308 19.32 30.579 18.589 30.579 17.687 C 30.579 16.785 31.308 16.056 32.206 16.056 C 33.106 16.056 33.834 16.785 33.834 17.687"/>
  <path id="path18" style="fill: rgb(52, 94, 169); fill-opacity: 1; fill-rule: nonzero; stroke: none;" d="M 40.985 49.751 L 9.092 49.751 C 4.202 49.751 0.235 45.785 0.235 40.893 L 0.235 9.002 C 0.235 4.11 4.202 0.143 9.092 0.143 L 40.985 0.143 C 45.875 0.143 49.843 4.11 49.843 9.002 L 49.843 40.893 C 49.843 45.785 45.875 49.751 40.985 49.751"/>
  <path id="path20" style="fill: rgb(255, 255, 255); fill-opacity: 1; fill-rule: nonzero; stroke: none;" d="M 21.178 39.94 L 27.233 39.94 L 27.233 24.82 L 31.457 24.82 L 31.908 19.758 L 27.233 19.758 C 27.233 19.758 27.233 17.867 27.233 16.874 C 27.233 15.68 27.474 15.208 28.632 15.208 C 29.561 15.208 31.908 15.208 31.908 15.208 L 31.908 9.955 C 31.908 9.955 28.454 9.955 27.715 9.955 C 23.209 9.955 21.178 11.934 21.178 15.721 C 21.178 19.021 21.178 19.758 21.178 19.758 L 18.028 19.758 L 18.028 24.882 L 21.178 24.882 L 21.178 39.94"/>
</svg>