<svg id="e7335ffa-d7ba-40ab-af6b-1b3087a2b098" data-name="Layer 1" xmlns="http://www.w3.org/2000/svg" width="500" height="500" viewBox="0 0 500 500"><defs><style>.bec5f6a5-8273-461a-b834-5f01a1a0b315,.ea34a697-e29b-41b3-9a0b-da0609d11453{fill:#00ab4e;}.ea34a697-e29b-41b3-9a0b-da0609d11453{opacity:0.5;}</style></defs><title>favicon</title><path class="bec5f6a5-8273-461a-b834-5f01a1a0b315" d="M468.5,256l-32.86-76.5C404.85,107.8,321,74.35,249.32,105.14L167,140.48c-50.43-34.4-112.35-69.55-137.6-55C-16.31,111.84,120,405.69,120,405.69,150.78,477.38,234.63,510.84,306.31,480l87.84-37.72C465.83,411.52,499.29,327.68,468.5,256Zm-153,43c-6,36.06-38.22,42.2-61.68,41.69a25.86,25.86,0,0,1-25.25-25.89v-29A26,26,0,0,1,252.37,260C280.29,257.45,322,260,315.52,299Z"/><path class="ea34a697-e29b-41b3-9a0b-da0609d11453" d="M304.92,113.49H215.36C182.61,62,139.58,5.24,110.64,8.65c-52.42,6.16-43.17,330-43.17,330,0,78,63.83,141.85,141.85,141.85h95.6c78,0,141.85-63.83,141.85-141.85V255.35C446.77,177.33,382.94,113.49,304.92,113.49ZM315.52,299c-6,36.06-38.22,42.2-61.68,41.69a25.86,25.86,0,0,1-25.25-25.89v-29A26,26,0,0,1,252.37,260C280.29,257.45,322,260,315.52,299Z"/></svg>