<svg id="a6cb8e8b-98a2-4a44-9d8b-66a55bc2f49a" data-name="Layer 1" xmlns="http://www.w3.org/2000/svg" width="270" height="270" viewBox="0 0 270 270"><defs><style>.bd2fca02-6d7a-477c-ae62-7ce9bbf5de63{fill:#0fab4d;}.a5b867ad-7234-492c-9355-f3552017881c{fill:#fff;}</style></defs><title>garansiku-01</title><path class="bd2fca02-6d7a-477c-ae62-7ce9bbf5de63" d="M257.82,146.62,270,134.52l-11.83-11.74L267.54,109l-14.28-9.58,6.65-15.78L244,77.05l3.39-16.81-16.9-3.36V39.77H213.74l-3.18-16.3-16.92,3.25-6.55-15.83-16,6.51L161.54,3.13,147.2,12.62,135,.52,123.18,12.26,109.32,3,99.67,17.15l-15.9-6.6L77.11,26.36,60.18,23,56.79,39.77H39.55v16.6L23.13,59.53l3.28,16.8L10.46,82.82,17,98.68l-14.38,9.5,9.56,14.24L0,134.52l11.83,11.74L2.48,160l14.28,9.58-6.65,15.78L26,192,22.65,208.8l16.9,3.36v17.11H56.28l3.18,16.3,16.92-3.25,6.55,15.83,16-6.51,9.58,14.27,14.34-9.49L135,268.52l11.83-11.74,13.86,9.29,9.65-14.18,15.9,6.6,6.66-15.81,16.93,3.37,3.39-16.78h17.24v-16.6l16.42-3.16-3.28-16.8,15.95-6.49L253,170.36l14.38-9.5Z"/><path class="a5b867ad-7234-492c-9355-f3552017881c" d="M129.44,121a12,12,0,0,1,2.27,7.37,11.62,11.62,0,0,1-5,9.91q-5,3.63-13.56,3.61a33.75,33.75,0,0,1-9.73-1.38A20.89,20.89,0,0,1,96,136.8L99.86,128a22.69,22.69,0,0,0,12.71,4.26c2.71,0,4.63-.4,5.78-1.21a4.55,4.55,0,0,0,1.38-1.81,4.68,4.68,0,0,0,.35-2.25,4.25,4.25,0,0,0-.35-2.11,4.39,4.39,0,0,0-1.34-1.68c-1.13-.76-3-1.15-5.55-1.15h-7.37v-9.6h6.16a10.33,10.33,0,0,0,5.41-1.08,3.84,3.84,0,0,0,1.31-1.49,3.78,3.78,0,0,0,.37-2,4.89,4.89,0,0,0-1.58-3.88,6.64,6.64,0,0,0-4.5-1.39,18.07,18.07,0,0,0-6,1.12,25.77,25.77,0,0,0-6.08,3.14l-3.85-8.79a21.65,21.65,0,0,1,7.47-3.68,32.77,32.77,0,0,1,9.43-1.39,22.72,22.72,0,0,1,8.89,1.62,13.52,13.52,0,0,1,5.91,4.6,11.66,11.66,0,0,1,2.1,6.9,11,11,0,0,1-1.93,6.55,10.91,10.91,0,0,1-5.44,4.06,11.58,11.58,0,0,1,6.3,4.19Z"/><path class="a5b867ad-7234-492c-9355-f3552017881c" d="M141.64,135.65Q137,129.38,137,117.52q0-11.7,4.7-18t13.48-6.28q8.79,0,13.49,6.28t4.7,18q0,11.9-4.67,18.18T155.19,142Q146.31,141.95,141.64,135.65ZM159.83,129q1.44-3.51,1.42-11.56c0-5.28-.47-9.07-1.42-11.4s-2.5-3.48-4.67-3.48-3.71,1.16-4.66,3.48-1.42,6.12-1.42,11.4.47,9.21,1.42,11.56,2.51,3.49,4.66,3.49S158.88,131.37,159.83,129Z"/><path class="a5b867ad-7234-492c-9355-f3552017881c" d="M111,155.08h4.25v19.59H111v-8.23h-9v8.23H97.67V155.08h4.25V163h9Z"/><path class="a5b867ad-7234-492c-9355-f3552017881c" d="M136.81,174.67,135,170.33h-9.11L124,174.67h-4.36l9-19.59h3.47l9,19.59Zm-9.55-7.61h6.28l-3.14-7.34Z"/><path class="a5b867ad-7234-492c-9355-f3552017881c" d="M162.51,174.67h-4.72l-3.39-6.25a2.67,2.67,0,0,0-1-1,3,3,0,0,0-1.48-.32h-2.13v7.61h-4.28V155.08h9a7.85,7.85,0,0,1,5.21,1.52,6.26,6.26,0,0,1,.52,8.09,5.86,5.86,0,0,1-3.48,2,4.26,4.26,0,0,1,2.58,2.19Zm-5.95-11.55a2.91,2.91,0,0,0,0-4.09,4.45,4.45,0,0,0-2.69-.64h-4.14v5.39h4.14a4.31,4.31,0,0,0,2.69-.66Z"/><path class="a5b867ad-7234-492c-9355-f3552017881c" d="M167.76,174.67V155.08h4.33v19.59Z"/><path class="a5b867ad-7234-492c-9355-f3552017881c" d="M135,245.23a110.83,110.83,0,1,1,78.25-32.46A110.72,110.72,0,0,1,135,245.23Zm0-220.42A109.84,109.84,0,1,0,212.55,57,109.74,109.74,0,0,0,135,24.81Z"/><path class="a5b867ad-7234-492c-9355-f3552017881c" d="M135,212.66a78.22,78.22,0,1,1,55.23-22.91A78.11,78.11,0,0,1,135,212.66Zm0-155.28A77.21,77.21,0,1,0,189.54,80,77.17,77.17,0,0,0,135,57.38Z"/><path class="a5b867ad-7234-492c-9355-f3552017881c" d="M76.83,60.08l7.43,7.7a15.49,15.49,0,0,1-1.85,3.45,21.42,21.42,0,0,1-2.86,3.37,12.8,12.8,0,0,1-5.27,3.2,9.29,9.29,0,0,1-5.5-.08,13.74,13.74,0,0,1-8.29-8.59,9.39,9.39,0,0,1,.08-5.48,12.1,12.1,0,0,1,3.27-5,14.41,14.41,0,0,1,3.61-2.58,9.84,9.84,0,0,1,3.67-1l1.29,3.45a11.74,11.74,0,0,0-3.22.92,9.9,9.9,0,0,0-2.57,1.82q-4.56,4.38.54,9.68c1.75,1.81,3.45,2.79,5.1,2.92a6.26,6.26,0,0,0,4.86-2.1A13.89,13.89,0,0,0,79.37,69L76,65.52l-3.08,3-2.32-2.41Z"/><path class="a5b867ad-7234-492c-9355-f3552017881c" d="M97.19,46.12a6.81,6.81,0,0,1,3.68,3.75l4,8-4,2-1-2a3.63,3.63,0,0,1-.57,2.34,4.6,4.6,0,0,1-2,1.73,6.17,6.17,0,0,1-2.79.7A4.9,4.9,0,0,1,92,62a4.5,4.5,0,0,1-1.75-1.89,3.79,3.79,0,0,1-.41-2.74,5.07,5.07,0,0,1,1.83-2.47,24.86,24.86,0,0,1,4.45-2.69l.72-.36-.25-.5a2.54,2.54,0,0,0-.54-.87,2.61,2.61,0,0,0-.84-.59,3,3,0,0,0-2.08.41,9.59,9.59,0,0,0-2,1.46,13,13,0,0,0-1.83,2.16l-2.5-2.25A12.92,12.92,0,0,1,89,49a13.43,13.43,0,0,1,3-2.06A6.79,6.79,0,0,1,97.19,46.12ZM98.4,56.79a3.37,3.37,0,0,0-.31-2.49l-.23-.48-.48.24a10.55,10.55,0,0,0-3,1.93,1.44,1.44,0,0,0-.42.84,1.38,1.38,0,0,0,.17.91,1.89,1.89,0,0,0,.46.62,1.6,1.6,0,0,0,.67.38,1.77,1.77,0,0,0,.79.09,1.82,1.82,0,0,0,.75-.23,2.79,2.79,0,0,0,1-.72,2.75,2.75,0,0,0,.59-1.09Z"/><path class="a5b867ad-7234-492c-9355-f3552017881c" d="M121.66,41.4l-2.52.83a4.13,4.13,0,0,0-2.46,1.66,3.64,3.64,0,0,0-.27,2.55l1.68,7.76-4.57,1-3.23-14.88,4.39-1,.55,2.52c.37-1.88,1.72-3.16,4-3.83l1.32-.38Z"/><path class="a5b867ad-7234-492c-9355-f3552017881c" d="M143.47,38.61a6.74,6.74,0,0,1,1.47,5l-.28,9-4.43-.09.07-2.26a3.69,3.69,0,0,1-1.61,1.79,4.59,4.59,0,0,1-2.56.59,6.13,6.13,0,0,1-2.78-.7,4.91,4.91,0,0,1-1.93-1.8,4.48,4.48,0,0,1-.65-2.5A3.81,3.81,0,0,1,131.7,45a5.17,5.17,0,0,1,2.79-1.31,24.94,24.94,0,0,1,5.18-.27h.81v-.56a2.51,2.51,0,0,0-.07-1A2.74,2.74,0,0,0,140,41a3,3,0,0,0-2-.62,9.51,9.51,0,0,0-2.49.33,13.16,13.16,0,0,0-2.64,1l-1.15-3.14a13.09,13.09,0,0,1,3.25-1.25,13,13,0,0,1,3.56-.43A7,7,0,0,1,143.47,38.61Zm-4,10a3.33,3.33,0,0,0,.91-2.34v-.53h-.53a10.76,10.76,0,0,0-3.53.29,1.43,1.43,0,0,0-.76.54,1.5,1.5,0,0,0-.29.89,2,2,0,0,0,.12.76,1.76,1.76,0,0,0,.41.65,2.15,2.15,0,0,0,.66.45,2,2,0,0,0,.77.15,2.72,2.72,0,0,0,1.23-.19,2.66,2.66,0,0,0,1-.7Z"/><path class="a5b867ad-7234-492c-9355-f3552017881c" d="M170.74,44.92a7.35,7.35,0,0,1-.21,5l-2.81,8.73-4.46-1.43L166,48.68a3.51,3.51,0,0,0,.15-2.33,2.15,2.15,0,0,0-.59-.78,2.25,2.25,0,0,0-.89-.44,3.06,3.06,0,0,0-2.51.16,3.47,3.47,0,0,0-1.6,2.09L158,55.52l-4.46-1.44,4.68-14.49L162.5,41l-.66,2.07a5.38,5.38,0,0,1,2.57-1.16,6.36,6.36,0,0,1,3,.27,5,5,0,0,1,3.33,2.75Z"/><path class="a5b867ad-7234-492c-9355-f3552017881c" d="M177.5,63.66a9.52,9.52,0,0,1-1.77-2.82l2.81-2a10.63,10.63,0,0,0,1.56,2.59,10,10,0,0,0,2.26,2.09,3.24,3.24,0,0,0,1.6.63,1.11,1.11,0,0,0,.6-.11,1.14,1.14,0,0,0,.45-.42.93.93,0,0,0,.2-.48,1,1,0,0,0-.08-.52,4.31,4.31,0,0,0-1-1.33l-1.76-1.77a6.55,6.55,0,0,1-1.86-3.06,4,4,0,0,1,.05-1.54,3.89,3.89,0,0,1,.65-1.4,4.06,4.06,0,0,1,2.07-1.65,5.53,5.53,0,0,1,2.88-.14,9.29,9.29,0,0,1,3.2,1.37,10.52,10.52,0,0,1,2.39,2.17,10,10,0,0,1,1.56,2.7l-2.74,1.91a8.36,8.36,0,0,0-3.06-4,3.34,3.34,0,0,0-1.63-.63,1.12,1.12,0,0,0-.62.12,1.15,1.15,0,0,0-.48.42,1.1,1.1,0,0,0-.16.41.93.93,0,0,0,0,.44,4.07,4.07,0,0,0,.8,1.16l1.82,1.91a7,7,0,0,1,2,3.2,4,4,0,0,1,0,1.58,4,4,0,0,1-.67,1.42,4,4,0,0,1-1.43,1.4,4.07,4.07,0,0,1-1.93.52,8.07,8.07,0,0,1-4.72-1.61,14.32,14.32,0,0,1-3-2.56Z"/><path class="a5b867ad-7234-492c-9355-f3552017881c" d="M192.26,75.28l10.85-10.67L206.39,68,195.54,78.62Zm16-15.91L211.78,63,208.66,66l-3.52-3.58Z"/><path class="a5b867ad-7234-492c-9355-f3552017881c" d="M40.8,168.37a8.17,8.17,0,0,1,4.71-4.3l10.27-4.42,1.64,3.79L47,167.94a5.13,5.13,0,0,0-2.76,2.32,4.42,4.42,0,0,0,2.4,5.53,5,5,0,0,0,3.58-.39l10.44-4.49,1.63,3.79L52,179.12a8,8,0,0,1-3.13.88,8.08,8.08,0,0,1-3.23-.43,10,10,0,0,1-4.83-11.2Z"/><path class="a5b867ad-7234-492c-9355-f3552017881c" d="M66.07,191.83a5.88,5.88,0,0,1-2.62,3.75l-6.26,4.7-2.32-3.08L56.44,196a3.19,3.19,0,0,1-2.09-.11,4.17,4.17,0,0,1-1.8-1.42,5.57,5.57,0,0,1-1-2.28,4.36,4.36,0,0,1,.17-2.29A4,4,0,0,1,53,188.1a3.38,3.38,0,0,1,2.28-.78,4.45,4.45,0,0,1,2.43,1.2,21.41,21.41,0,0,1,3,3.38l.42.56.39-.3a2.13,2.13,0,0,0,1-1.41,2.57,2.57,0,0,0-.68-1.72,7.87,7.87,0,0,0-1.54-1.51,10.81,10.81,0,0,0-2.14-1.23l1.53-2.5a12.12,12.12,0,0,1,4.85,3.73,6,6,0,0,1,1.52,4.31Zm-9,2.73a2.88,2.88,0,0,0,2.09-.66l.37-.28-.28-.37A9,9,0,0,0,57.13,191a1.27,1.27,0,0,0-1.54.06,1.54,1.54,0,0,0-.45.5,1.58,1.58,0,0,0-.22.63,1.79,1.79,0,0,0,0,.69,1.72,1.72,0,0,0,.31.6,2.54,2.54,0,0,0,.81.72,2.36,2.36,0,0,0,1,.3Z"/><path class="a5b867ad-7234-492c-9355-f3552017881c" d="M80.66,205.87a6.4,6.4,0,0,1-1.86,3.94l-5.22,6.05-3.09-2.66,5.09-5.91a3.11,3.11,0,0,0,.91-1.82,1.73,1.73,0,0,0-.21-.83,1.87,1.87,0,0,0-.56-.66,2.69,2.69,0,0,0-1-.58,2.76,2.76,0,0,0-1.11-.13,3.06,3.06,0,0,0-2,1.13L66.81,210l-3.09-2.66,8.66-10,3,2.59-1.23,1.43a4.63,4.63,0,0,1,2.45,0,5.44,5.44,0,0,1,2.29,1.14,4.33,4.33,0,0,1,1.77,3.35Z"/><path class="a5b867ad-7234-492c-9355-f3552017881c" d="M99.81,216,94.3,226.45a6.1,6.1,0,0,1-1.57,2.15,6,6,0,0,1-2.33,1.29,7.87,7.87,0,0,1-5.56-1.07,13.24,13.24,0,0,1-2.82-2,10.32,10.32,0,0,1-2-2.41l2.26-2A10.72,10.72,0,0,0,86.14,226q3,1.56,4.44-1.24l.68-1.29a3.94,3.94,0,0,1-2.26.64,5.31,5.31,0,0,1-2.52-.65,5.84,5.84,0,0,1-2.34-2.15,5.6,5.6,0,0,1-.77-3,7.66,7.66,0,0,1,1-3.42,7.78,7.78,0,0,1,2.28-2.72,5.59,5.59,0,0,1,6-.37,5.28,5.28,0,0,1,1.94,1.69,4.11,4.11,0,0,1,.77,2.23l.87-1.65Zm-8.42,5.53a4.52,4.52,0,0,0,2.4-4.55,2.6,2.6,0,0,0-.55-1.1,2.71,2.71,0,0,0-1-.76,2.74,2.74,0,0,0-1.18-.38,2.91,2.91,0,0,0-1.24.16,4.52,4.52,0,0,0-1.91,1.89,4.47,4.47,0,0,0-.48,2.64,2.83,2.83,0,0,0,.56,1.14,2.69,2.69,0,0,0,1,.77,2.87,2.87,0,0,0,1.17.37,2.77,2.77,0,0,0,1.21-.18Z"/><path class="a5b867ad-7234-492c-9355-f3552017881c" d="M133.42,236.74l-5-.58-7.21-9.64-1,8.72-4.18-.48,2.18-18.91,4.18.48-1,8.32,8.9-7.4,4.94.57-9.84,8Z"/><path class="a5b867ad-7234-492c-9355-f3552017881c" d="M151.69,229.14l-8.59.93a3.42,3.42,0,0,0,1.28,2.18,3.6,3.6,0,0,0,2.48.46,6.09,6.09,0,0,0,2-.56A6.34,6.34,0,0,0,150.6,231l1.36,2.6a7.35,7.35,0,0,1-2.22,1.43,8.91,8.91,0,0,1-2.73.73,7.34,7.34,0,0,1-5.45-1.27,6.54,6.54,0,0,1-1.73-2.14,6.64,6.64,0,0,1-.73-2.66,7.63,7.63,0,0,1,.45-3.66,6.22,6.22,0,0,1,2-2.68,6.56,6.56,0,0,1,3.26-1.24,5.74,5.74,0,0,1,2.44.17,5.65,5.65,0,0,1,2.14,1.16,7,7,0,0,1,2.15,4.71Zm-8.19-3.31a3.68,3.68,0,0,0-.62,2.23l5.18-.56a3.47,3.47,0,0,0-.94-2.07,2.32,2.32,0,0,0-.87-.48,2.36,2.36,0,0,0-1-.06,2.57,2.57,0,0,0-1,.28,2.61,2.61,0,0,0-.78.66Z"/><path class="a5b867ad-7234-492c-9355-f3552017881c" d="M175.81,214.77a6.64,6.64,0,0,1,2.54,3.53l2.87,7.46-3.81,1.47-2.82-7.34a3.46,3.46,0,0,0-1.08-1.66,1.67,1.67,0,0,0-.76-.22,1.62,1.62,0,0,0-.78.17,2.28,2.28,0,0,0-1.4,1.4,3.58,3.58,0,0,0,.21,2.35l2.62,6.83-3.8,1.47-2.82-7.34a3.39,3.39,0,0,0-1.09-1.66,1.67,1.67,0,0,0-.76-.22,1.6,1.6,0,0,0-.77.17,2.2,2.2,0,0,0-1.4,1.41,3.58,3.58,0,0,0,.21,2.35l2.62,6.83-3.8,1.46L157,220.85l3.71-1.42.64,1.66a4.26,4.26,0,0,1,1-2,5.19,5.19,0,0,1,2-1.37,3.89,3.89,0,0,1,2.46-.39,3.78,3.78,0,0,1,2.19,1.19,4.69,4.69,0,0,1,1.05-2.32,5.18,5.18,0,0,1,2.15-1.54,4.2,4.2,0,0,1,1.82-.36,4.1,4.1,0,0,1,1.78.47Z"/><path class="a5b867ad-7234-492c-9355-f3552017881c" d="M191.55,203.38a5.61,5.61,0,0,1,3.08.69,8.16,8.16,0,0,1,2.74,2.45,8.48,8.48,0,0,1,1.56,3.36,5.79,5.79,0,0,1-.21,3.22,5.31,5.31,0,0,1-1.92,2.51,5.15,5.15,0,0,1-2.34,1,4.11,4.11,0,0,1-2.32-.28l1.17,1.58-3.23,2.4L178.75,205l3.28-2.43,4.5,6.08a4,4,0,0,1,.43-2.25,5.53,5.53,0,0,1,1.63-1.9,5.62,5.62,0,0,1,3-1.13Zm3.63,8.31a4.54,4.54,0,0,0-1.07-2.76,4.28,4.28,0,0,0-2.27-1.76,3,3,0,0,0-1.24,0,2.94,2.94,0,0,0-1.12.52,3.18,3.18,0,0,0-.82.93,3.13,3.13,0,0,0-.37,1.18,4.45,4.45,0,0,0,1,2.71,4.34,4.34,0,0,0,2.31,1.8,2.73,2.73,0,0,0,1.24,0,2.9,2.9,0,0,0,1.13-.51,2.94,2.94,0,0,0,.81-.94,2.75,2.75,0,0,0,.36-1.19Z"/><path class="a5b867ad-7234-492c-9355-f3552017881c" d="M205.52,189.9a5.83,5.83,0,0,1,2.29.47,5.75,5.75,0,0,1,1.92,1.31l5.91,5.14-2.54,2.91-1.48-1.29a3.31,3.31,0,0,1,.32,2.07,4.09,4.09,0,0,1-1,2,5.26,5.26,0,0,1-2,1.49,4.2,4.2,0,0,1-2.27.31,3.79,3.79,0,0,1-2-.94,3.39,3.39,0,0,1-1.24-2.06,4.41,4.41,0,0,1,.65-2.6,21.29,21.29,0,0,1,2.68-3.65l.46-.53-.37-.32a2.33,2.33,0,0,0-.72-.52,2.44,2.44,0,0,0-.88-.19,2.56,2.56,0,0,0-1.54,1,8.48,8.48,0,0,0-1.15,1.86,10.9,10.9,0,0,0-.75,2.35l-2.77-1a11.24,11.24,0,0,1,1-2.87,12.2,12.2,0,0,1,1.67-2.65,6,6,0,0,1,3.81-2.29Zm4.53,8.18a2.93,2.93,0,0,0-1.08-1.91l-.35-.3-.3.35a9,9,0,0,0-1.74,2.54,1.27,1.27,0,0,0,.38,1.49,1.55,1.55,0,0,0,1.24.42,1.66,1.66,0,0,0,.66-.18,1.62,1.62,0,0,0,.53-.44,2.45,2.45,0,0,0,.53-.91,2.52,2.52,0,0,0,.09-1.06Z"/><path class="a5b867ad-7234-492c-9355-f3552017881c" d="M220.74,189.33l-16.23-10,2.13-3.47,16.23,9.94Z"/><path class="a5b867ad-7234-492c-9355-f3552017881c" d="M209,170.25l1.8-4,3.47,1.57-1.8,4Zm17.94,8-12.08-5.45,1.68-3.72,12,5.44Z"/><path class="a5b867ad-7234-492c-9355-f3552017881c" d="M41.05,125.26l3,6.1,6.72,1-4.86,4.75,1.15,6.7-6-3.17-6,3.17,1.14-6.7-4.86-4.75,6.72-1Z"/><path class="a5b867ad-7234-492c-9355-f3552017881c" d="M228.82,125.26l3,6.1,6.73,1-4.87,4.75,1.15,6.7-6-3.17-6,3.17,1.15-6.7-4.87-4.75,6.73-1Z"/></svg>