<svg id="e416407b-703a-4bd2-882f-e1ece0f7eebd" data-name="Layer 1" xmlns="http://www.w3.org/2000/svg" width="92" height="92" viewBox="0 0 92 92"><defs><style>.b777cc30-fb39-446e-b32c-ba6d024e8981{fill:#0daa4c;}.abc44f9d-c759-4233-bfdc-115454bcbc2d{fill:none;stroke:#fff;stroke-linejoin:round;stroke-width:2px;}</style></defs><title>harga-paket</title><circle class="b777cc30-fb39-446e-b32c-ba6d024e8981" cx="46" cy="46" r="45.5"/><circle class="abc44f9d-c759-4233-bfdc-115454bcbc2d" cx="46" cy="46" r="19.78"/><path class="abc44f9d-c759-4233-bfdc-115454bcbc2d" d="M55.58,28.69s2.31,10.48-1.3,10.88S48.54,42,48.22,45.08s1.8,5.51,0,9.64-3.46-5.21-6.93-7.18-9-1.76-8.9-4-6-.86-5.8-1.73"/><path class="abc44f9d-c759-4233-bfdc-115454bcbc2d" d="M65.4,49.89s-2-3.56-4.72-2.39-2.81,5.29-5.25,6.41-5.94,5.75-3.61,6.74-2.45,1.88-2.29,4.8"/><path class="abc44f9d-c759-4233-bfdc-115454bcbc2d" d="M37.59,63.91S41.32,62.8,39,59.76s-3.6-2.28-4.27-5-5.57,1.65-5.57,1.65"/></svg>