<svg id="f2b304a3-ba04-4c0e-b912-cfb213f75b19" data-name="Server" xmlns="http://www.w3.org/2000/svg" width="66" height="66" viewBox="0 0 66 66"><defs><style>.b655b965-6cd2-4f6b-a86d-053e57e2376b,.f3b37a7d-50e8-488d-9552-80af3f892f18{fill:none;stroke:#07aa4d;stroke-linejoin:round;stroke-width:2px;}.b655b965-6cd2-4f6b-a86d-053e57e2376b{opacity:0.5;}</style></defs><title>icon-server</title><path class="f3b37a7d-50e8-488d-9552-80af3f892f18" d="M53.15,25.13H7a2,2,0,0,1-2-2v-7.8a2,2,0,0,1,2-2h33.5"/><rect class="f3b37a7d-50e8-488d-9552-80af3f892f18" x="4.95" y="33" width="48.2" height="11.8" rx="2"/><rect class="f3b37a7d-50e8-488d-9552-80af3f892f18" x="4.95" y="52.67" width="48.2" height="11.8" rx="2"/><rect class="f3b37a7d-50e8-488d-9552-80af3f892f18" x="8.88" y="25.13" width="40.33" height="7.87"/><rect class="f3b37a7d-50e8-488d-9552-80af3f892f18" x="8.95" y="44.48" width="40.33" height="7.87"/><circle class="b655b965-6cd2-4f6b-a86d-053e57e2376b" cx="12.82" cy="19.23" r="1.98"/><circle class="b655b965-6cd2-4f6b-a86d-053e57e2376b" cx="12.82" cy="38.9" r="1.98"/><circle class="b655b965-6cd2-4f6b-a86d-053e57e2376b" cx="12.82" cy="58.57" r="1.98"/><path class="b655b965-6cd2-4f6b-a86d-053e57e2376b" d="M20.69,19.23H43"/><path class="b655b965-6cd2-4f6b-a86d-053e57e2376b" d="M20.69,38.9H46.26"/><path class="b655b965-6cd2-4f6b-a86d-053e57e2376b" d="M20.69,58.57H46.26"/><path class="f3b37a7d-50e8-488d-9552-80af3f892f18" d="M53.43,6.24l2.24,4.66,5,.74-3.62,3.63.85,5.11L53.43,18,49,20.38l.86-5.11-3.62-3.63,5-.74Z"/><circle class="f3b37a7d-50e8-488d-9552-80af3f892f18" cx="53.15" cy="13.33" r="11.8"/></svg>