<svg id="b5d4144c-962c-4020-959f-528e1e0064d2" data-name="SEO" xmlns="http://www.w3.org/2000/svg" width="66" height="66" viewBox="0 0 66 66"><defs><style>.b8db8337-4213-4f9c-b483-e8d87f646e35,.e4fa9c58-9bfe-4bf6-aab2-9ad0c1d57be6{fill:none;stroke:#07aa4d;stroke-linejoin:round;stroke-width:2px;}.e4fa9c58-9bfe-4bf6-aab2-9ad0c1d57be6{opacity:0.5;}</style></defs><title>icon-seo</title><path class="b8db8337-4213-4f9c-b483-e8d87f646e35" d="M45.45,16.28h-14v-14Z"/><path class="e4fa9c58-9bfe-4bf6-aab2-9ad0c1d57be6" d="M26,15.41H9.55V26.7H26Z"/><path class="e4fa9c58-9bfe-4bf6-aab2-9ad0c1d57be6" d="M9.55,35.91H20.83"/><path class="e4fa9c58-9bfe-4bf6-aab2-9ad0c1d57be6" d="M9.55,43.42H28.82"/><path class="e4fa9c58-9bfe-4bf6-aab2-9ad0c1d57be6" d="M9.55,50.92H36.33"/><path class="b8db8337-4213-4f9c-b483-e8d87f646e35" d="M45.45,50.92V63.68H3.5V2.32h28l14,14V28.41"/><path class="e4fa9c58-9bfe-4bf6-aab2-9ad0c1d57be6" d="M52,50.57,49.33,48"/><path class="b8db8337-4213-4f9c-b483-e8d87f646e35" d="M40.51,51.64A12.43,12.43,0,1,0,28.09,39.21,12.42,12.42,0,0,0,40.51,51.64Z"/><path class="e4fa9c58-9bfe-4bf6-aab2-9ad0c1d57be6" d="M40.51,48a8.74,8.74,0,1,0-8.73-8.74A8.74,8.74,0,0,0,40.51,48Z"/><path class="b8db8337-4213-4f9c-b483-e8d87f646e35" d="M52.09,50.47l-.3.29a2.08,2.08,0,0,0,0,2.92l9.4,9.39a2,2,0,0,0,2.91,0l.3-.29a2.08,2.08,0,0,0,0-2.92L55,50.47A2,2,0,0,0,52.09,50.47Z"/></svg>