<svg id="b2c78554-4625-4ca8-974b-1058e0cbd615" data-name="Layer 5" xmlns="http://www.w3.org/2000/svg" width="66" height="66" viewBox="0 0 66 66"><defs><style>.a5640d54-569c-4650-9697-c7ae18a8ef4f,.b4d6322d-860c-4c34-bbfa-07dbac103fa3,.ed273cf2-769a-4037-a8af-901daa752054{fill:none;stroke-linejoin:round;stroke-width:2px;}.b4d6322d-860c-4c34-bbfa-07dbac103fa3,.ed273cf2-769a-4037-a8af-901daa752054{stroke:#07aa4d;}.ed273cf2-769a-4037-a8af-901daa752054{opacity:0.5;}.a5640d54-569c-4650-9697-c7ae18a8ef4f{stroke:#27baa3;stroke-linecap:round;}</style></defs><title>icon-mobile-friendly</title><path class="b4d6322d-860c-4c34-bbfa-07dbac103fa3" d="M1.5,21.63V4.8a3.3,3.3,0,0,1,1-2.33,3.36,3.36,0,0,1,2.34-1H61.19a3.36,3.36,0,0,1,2.34,1,3.3,3.3,0,0,1,1,2.33V48.39a3.3,3.3,0,0,1-1,2.33,3.36,3.36,0,0,1-2.34,1H26.37"/><path class="b4d6322d-860c-4c34-bbfa-07dbac103fa3" d="M39.63,51.69V59.1l5,5.39H26.37"/><path class="b4d6322d-860c-4c34-bbfa-07dbac103fa3" d="M26.37,39.26H64.5"/><path class="ed273cf2-769a-4037-a8af-901daa752054" d="M18.08,26.6H4.82A3.32,3.32,0,0,0,1.5,29.92V61.19a3.32,3.32,0,0,0,3.32,3.32H18.08a3.32,3.32,0,0,0,3.32-3.32V29.92A3.32,3.32,0,0,0,18.08,26.6Z"/><path class="a5640d54-569c-4650-9697-c7ae18a8ef4f" d="M11.44,59.53h0"/><path class="ed273cf2-769a-4037-a8af-901daa752054" d="M9,31.56h5"/></svg>