<svg id="b1df6572-acb5-4e09-87d7-dc41ab27f531" data-name="SEO" xmlns="http://www.w3.org/2000/svg" width="66" height="66" viewBox="0 0 66 66"><defs><style>.abc36fa2-6720-4ea5-b732-a3c827275e4a,.e7ea77b7-c023-484e-b826-6366238712dd{fill:none;stroke:#07aa4d;stroke-linejoin:round;stroke-width:2px;}.e7ea77b7-c023-484e-b826-6366238712dd{opacity:0.5;}</style></defs><title>icon-seo</title><path class="abc36fa2-6720-4ea5-b732-a3c827275e4a" d="M44.47,15.87H30.17V1.58Z"/><path class="e7ea77b7-c023-484e-b826-6366238712dd" d="M24.54,15H7.69V26.55H24.54Z"/><path class="e7ea77b7-c023-484e-b826-6366238712dd" d="M7.69,36H19.25"/><path class="e7ea77b7-c023-484e-b826-6366238712dd" d="M7.69,43.67H27.43"/><path class="e7ea77b7-c023-484e-b826-6366238712dd" d="M7.69,51.36H35.12"/><path class="abc36fa2-6720-4ea5-b732-a3c827275e4a" d="M44.47,51.35V64.42H1.5V1.58H30.17l14.3,14.29V28.29"/><path class="e7ea77b7-c023-484e-b826-6366238712dd" d="M51.12,51l-2.68-2.65"/><path class="abc36fa2-6720-4ea5-b732-a3c827275e4a" d="M39.41,52.1A12.73,12.73,0,1,0,26.68,39.37,12.73,12.73,0,0,0,39.41,52.1Z"/><path class="e7ea77b7-c023-484e-b826-6366238712dd" d="M39.41,48.32a8.95,8.95,0,1,0-8.95-9A8.95,8.95,0,0,0,39.41,48.32Z"/><path class="abc36fa2-6720-4ea5-b732-a3c827275e4a" d="M51.27,50.89l-.3.31a2.09,2.09,0,0,0,0,3l9.62,9.62a2.09,2.09,0,0,0,3,0l.31-.3a2.11,2.11,0,0,0,0-3l-9.63-9.63A2.11,2.11,0,0,0,51.27,50.89Z"/></svg>