<svg id="a4c4b003-f70a-439b-8d99-010aa287542f" data-name="Layer 2" xmlns="http://www.w3.org/2000/svg" width="66" height="66" viewBox="0 0 66 66"><defs><style>.a756147e-0f3c-40bf-b8ee-6efeea26afaa,.bd2a2f6f-b771-4acf-83f2-338129fea8d8{fill:none;stroke:#07aa4d;stroke-linejoin:round;stroke-width:2px;}.bd2a2f6f-b771-4acf-83f2-338129fea8d8{opacity:0.5;}</style></defs><title>icon-murah</title><path class="a756147e-0f3c-40bf-b8ee-6efeea26afaa" d="M62.71,43.25V59.68A4.3,4.3,0,0,1,58.4,64H7.6a4.3,4.3,0,0,1-4.31-4.32V43.25"/><path class="a756147e-0f3c-40bf-b8ee-6efeea26afaa" d="M62.71,37.93V54.37a4.3,4.3,0,0,1-4.31,4.31H7.6a4.3,4.3,0,0,1-4.31-4.31V37.93"/><path class="a756147e-0f3c-40bf-b8ee-6efeea26afaa" d="M59,27.93H7a3.72,3.72,0,0,0-3.71,3.72V49.29A3.72,3.72,0,0,0,7,53H59a3.72,3.72,0,0,0,3.71-3.72V31.65A3.72,3.72,0,0,0,59,27.93Z"/><path class="a756147e-0f3c-40bf-b8ee-6efeea26afaa" d="M23.71,53H42.29"/><path class="a756147e-0f3c-40bf-b8ee-6efeea26afaa" d="M23.71,58.68H42.29"/><path class="bd2a2f6f-b771-4acf-83f2-338129fea8d8" d="M42.29,27.93H23.71V64H42.29Z"/><path class="bd2a2f6f-b771-4acf-83f2-338129fea8d8" d="M33,45.46a5,5,0,1,0-5.11-5A5.08,5.08,0,0,0,33,45.46Z"/><path class="bd2a2f6f-b771-4acf-83f2-338129fea8d8" d="M9.79,36.21a2.32,2.32,0,1,0-2.32-2.32A2.32,2.32,0,0,0,9.79,36.21Z"/><path class="bd2a2f6f-b771-4acf-83f2-338129fea8d8" d="M56.52,49.51a2.32,2.32,0,1,0-2.32-2.32A2.32,2.32,0,0,0,56.52,49.51Z"/></svg>