<svg id="a2ce8055-06a3-4303-af19-d2546eab8ea2" data-name="Server" xmlns="http://www.w3.org/2000/svg" width="66" height="66" viewBox="0 0 66 66"><defs><style>.b43f26cf-0d43-4b20-bd4f-5d1c85178f64,.f1a9dc60-c8aa-4519-8c1e-c7ac0f118223{fill:none;stroke:#07aa4d;stroke-linejoin:round;stroke-width:2px;}.f1a9dc60-c8aa-4519-8c1e-c7ac0f118223{opacity:0.5;}</style></defs><title>icon-server</title><path class="b43f26cf-0d43-4b20-bd4f-5d1c85178f64" d="M51.2,25.13H5a2,2,0,0,1-2-2v-7.8a2,2,0,0,1,2-2H38.5"/><rect class="b43f26cf-0d43-4b20-bd4f-5d1c85178f64" x="3" y="33" width="48.2" height="11.8" rx="2"/><rect class="b43f26cf-0d43-4b20-bd4f-5d1c85178f64" x="3" y="52.67" width="48.2" height="11.8" rx="2"/><rect class="b43f26cf-0d43-4b20-bd4f-5d1c85178f64" x="6.93" y="25.13" width="40.33" height="7.87"/><rect class="b43f26cf-0d43-4b20-bd4f-5d1c85178f64" x="7" y="44.48" width="40.33" height="7.87"/><circle class="f1a9dc60-c8aa-4519-8c1e-c7ac0f118223" cx="10.87" cy="19.23" r="1.98"/><circle class="f1a9dc60-c8aa-4519-8c1e-c7ac0f118223" cx="10.87" cy="38.9" r="1.98"/><circle class="f1a9dc60-c8aa-4519-8c1e-c7ac0f118223" cx="10.87" cy="58.57" r="1.98"/><path class="f1a9dc60-c8aa-4519-8c1e-c7ac0f118223" d="M18.74,19.23H41"/><path class="f1a9dc60-c8aa-4519-8c1e-c7ac0f118223" d="M18.74,38.9H44.31"/><path class="f1a9dc60-c8aa-4519-8c1e-c7ac0f118223" d="M18.74,58.57H44.31"/><path class="b43f26cf-0d43-4b20-bd4f-5d1c85178f64" d="M51.48,6.24l2.24,4.66,5,.74L55.1,15.27,56,20.38,51.48,18,47,20.38l.86-5.11-3.62-3.63,5-.74Z"/><circle class="b43f26cf-0d43-4b20-bd4f-5d1c85178f64" cx="51.2" cy="13.33" r="11.8"/></svg>