<svg id="f551f2b6-d7b6-4df4-bfe3-5a002b095026" data-name="Layer 6" xmlns="http://www.w3.org/2000/svg" width="66" height="66" viewBox="0 0 66 66"><defs><style>.a1fdeadc-9db2-4d33-8dd9-907c2ce0637b,.f0bde5c0-2a8a-4b7b-8337-ff7e9399425d{fill:none;stroke:#07aa4d;stroke-linejoin:round;stroke-width:2px;}.a1fdeadc-9db2-4d33-8dd9-907c2ce0637b{opacity:0.5;}</style></defs><title>icon-fitur</title><path class="f0bde5c0-2a8a-4b7b-8337-ff7e9399425d" d="M47.93,26.12H5.73A4.23,4.23,0,0,0,1.5,30.35V56.44a4.23,4.23,0,0,0,4.23,4.23h42.2a4.23,4.23,0,0,0,4.23-4.23V30.35A4.23,4.23,0,0,0,47.93,26.12Z"/><path class="f0bde5c0-2a8a-4b7b-8337-ff7e9399425d" d="M7.5,26.12V20.21a4.34,4.34,0,0,1,4.32-4.32h42a4.31,4.31,0,0,1,1.66.33,4.23,4.23,0,0,1,1.4.93,4.42,4.42,0,0,1,.94,1.4,4.31,4.31,0,0,1,.33,1.66v25.9a4.34,4.34,0,0,1-4.33,4.33H52.16"/><path class="f0bde5c0-2a8a-4b7b-8337-ff7e9399425d" d="M13.84,15.56V9.66a4.34,4.34,0,0,1,4.33-4.33h42A4.34,4.34,0,0,1,64.5,9.66v25.9a4.32,4.32,0,0,1-4.33,4.32h-2"/><path class="a1fdeadc-9db2-4d33-8dd9-907c2ce0637b" d="M26.83,34.41l2.92,5.92,6.52.94-4.72,4.61,1.11,6.49L26.83,49.3,21,52.37l1.12-6.49-4.72-4.61,6.52-.94Z"/></svg>