<svg id="a0dddabb-3c1a-4692-8dc5-ba77b2e8087d" data-name="Layer 4" xmlns="http://www.w3.org/2000/svg" width="66" height="66" viewBox="0 0 66 66"><defs><style>.e180c2a9-b18e-4260-9d8c-97f06eab54ef,.ed291cf6-29b4-44e7-a043-abbc070d6d09{fill:none;stroke:#07aa4d;stroke-linejoin:round;stroke-width:2px;}.ed291cf6-29b4-44e7-a043-abbc070d6d09{opacity:0.5;}</style></defs><title>icon-desain</title><path class="e180c2a9-b18e-4260-9d8c-97f06eab54ef" d="M39.63,51.7H61.19a3.36,3.36,0,0,0,2.34-1,3.32,3.32,0,0,0,1-2.34V4.81A3.31,3.31,0,0,0,61.19,1.5H4.81A3.31,3.31,0,0,0,1.5,4.81V48.38a3.31,3.31,0,0,0,1,2.34,3.38,3.38,0,0,0,2.35,1h5.56"/><path class="e180c2a9-b18e-4260-9d8c-97f06eab54ef" d="M26.63,56v3.11l-5,5.39h23l-5-5.39V51.7"/><path class="e180c2a9-b18e-4260-9d8c-97f06eab54ef" d="M48.07,39.26H64.5"/><path class="e180c2a9-b18e-4260-9d8c-97f06eab54ef" d="M1.5,39.26H15.78"/><path class="ed291cf6-29b4-44e7-a043-abbc070d6d09" d="M53.66,33.67,32.35,12.36,17.29,27.42l21.3,21.31Z"/><path class="ed291cf6-29b4-44e7-a043-abbc070d6d09" d="M20.84,31,31.17,20.65"/><path class="ed291cf6-29b4-44e7-a043-abbc070d6d09" d="M24.07,34.21l3.12-3.12"/><path class="ed291cf6-29b4-44e7-a043-abbc070d6d09" d="M33.1,43.25l3.12-3.12"/><path class="e180c2a9-b18e-4260-9d8c-97f06eab54ef" d="M39.66,49.81,16.21,26.35,9.54,33,33,56.47Z"/><path class="e180c2a9-b18e-4260-9d8c-97f06eab54ef" d="M19,36.72,29.3,47.05"/><path class="e180c2a9-b18e-4260-9d8c-97f06eab54ef" d="M19.3,42.77l3.95,3.95-17,17a2.63,2.63,0,0,1-.9.6,2.8,2.8,0,0,1-1.07.21,2.77,2.77,0,0,1-2-.81,2.78,2.78,0,0,1,0-3.95l17-17Z"/></svg>