<svg id="ab0d26fb-fd6d-4b2a-a4c5-b895b79a5d37" data-name="Layer 1" xmlns="http://www.w3.org/2000/svg" width="409.6" height="409.6" viewBox="0 0 409.6 409.6"><defs><style>.b8ca0f72-97c7-444b-85d2-e09c70852dc9{fill:#07aa4d;}</style></defs><title>info</title><path class="b8ca0f72-97c7-444b-85d2-e09c70852dc9" d="M252.48,263.38H240.56V156.09a12,12,0,0,0-11.92-11.92H157.12a12,12,0,0,0-11.92,11.92v47.69a12,12,0,0,0,11.92,11.92H169v47.68H157.12A12,12,0,0,0,145.2,275.3V323a12,12,0,0,0,11.92,11.92h95.36A12,12,0,0,0,264.4,323V275.3A12,12,0,0,0,252.48,263.38Zm-11.92,47.68H169V287.22H181a12,12,0,0,0,11.92-11.92V203.78A12,12,0,0,0,181,191.86H169V168h47.68V275.3a12,12,0,0,0,11.92,11.92h11.92Z"/><path class="b8ca0f72-97c7-444b-85d2-e09c70852dc9" d="M204.8,48.81a35.76,35.76,0,1,0,35.76,35.76A35.8,35.8,0,0,0,204.8,48.81Zm0,47.68a11.92,11.92,0,1,1,11.92-11.92A11.95,11.95,0,0,1,204.8,96.49Z"/><path class="b8ca0f72-97c7-444b-85d2-e09c70852dc9" d="M205.59,1.12C94.43,1.12,1.35,90.93,1.35,203.78,1.35,243,12.58,282,33.14,314.24L2.25,391.63a11.94,11.94,0,0,0,15.5,15.49l77.38-31c32.29,20.56,71.33,31.79,110.46,31.79,113,0,202.66-93.18,202.66-204.24A202.47,202.47,0,0,0,205.59,1.12Zm0,383.15A183.33,183.33,0,0,1,103.18,353a11.73,11.73,0,0,0-11.13-1.19L34.73,374.64l23-57.32a12,12,0,0,0-1.19-11.13C36.32,276.79,25.1,240.43,25.1,203.78c0-98.55,81.06-178.91,180.49-178.91,98.55,0,178.91,80.56,178.91,179.1.1,99.44-80.26,180.3-178.91,180.3Z"/></svg>