<svg id="b0bdb429-12af-4ac1-9fcf-6e98d47ce5db" data-name="Layer 1" xmlns="http://www.w3.org/2000/svg" width="500" height="568" viewBox="0 0 500 568"><defs><style>.b0f1f047-f140-40dd-83ec-dca9698c8f12,.ed52bd8d-1f90-4d2b-93b4-4c8c615c3e58,.ee2bff1b-3bb7-4596-9370-a776f4e4c290{fill:#fff;}.a22922f0-a9db-49c3-a5f1-97500edf818d,.e12608b6-0c8b-4517-9ddc-4ddcffdf302c,.ee2bff1b-3bb7-4596-9370-a776f4e4c290{stroke:#0daa4c;stroke-linejoin:round;}.a1eda69c-f58d-4b2b-9f3b-6b72550d1511,.a22922f0-a9db-49c3-a5f1-97500edf818d,.af0e21f3-8a0f-40a4-abe6-25720680e735,.e12608b6-0c8b-4517-9ddc-4ddcffdf302c,.f1482f40-5301-4707-bdbc-9c3002e60d1b{fill:none;}.a1eda69c-f58d-4b2b-9f3b-6b72550d1511{stroke:#bdbdbd;}.f1482f40-5301-4707-bdbc-9c3002e60d1b{stroke:#27baa3;}.af0e21f3-8a0f-40a4-abe6-25720680e735{stroke:#11aa4b;}.a323f625-ebc1-4fd1-9b14-49d017b6c629{fill:#07aa4d;}.a22922f0-a9db-49c3-a5f1-97500edf818d,.e12608b6-0c8b-4517-9ddc-4ddcffdf302c{stroke-dasharray:8 8;}.b1bab2ee-3c22-4389-96f3-5dd27d0f46f5{fill:#d6ebd2;}.ed52bd8d-1f90-4d2b-93b4-4c8c615c3e58{fill-rule:evenodd;}.e12608b6-0c8b-4517-9ddc-4ddcffdf302c{stroke-linecap:square;stroke-width:2px;}</style></defs><title>langkah-langkah</title><path class="ee2bff1b-3bb7-4596-9370-a776f4e4c290" d="M79,29a8,8,0,0,1,8-8H441a8,8,0,0,1,8,8V46H79Z"/><circle class="a1eda69c-f58d-4b2b-9f3b-6b72550d1511" cx="98.5" cy="33.5" r="4"/><circle class="f1482f40-5301-4707-bdbc-9c3002e60d1b" cx="98.5" cy="33.5" r="4"/><circle class="f1482f40-5301-4707-bdbc-9c3002e60d1b" cx="117.5" cy="33.5" r="4"/><circle class="f1482f40-5301-4707-bdbc-9c3002e60d1b" cx="136.5" cy="33.5" r="4"/><path class="af0e21f3-8a0f-40a4-abe6-25720680e735" d="M79,29a8,8,0,0,1,8-8H441a8,8,0,0,1,8,8V46H79Z"/><rect class="ee2bff1b-3bb7-4596-9370-a776f4e4c290" x="79" y="46" width="370" height="212"/><rect class="a323f625-ebc1-4fd1-9b14-49d017b6c629" x="33" y="62" width="192" height="110"/><rect class="a323f625-ebc1-4fd1-9b14-49d017b6c629" x="99" y="188" width="95" height="54"/><rect class="a323f625-ebc1-4fd1-9b14-49d017b6c629" x="210" y="188" width="95" height="54"/><rect class="a323f625-ebc1-4fd1-9b14-49d017b6c629" x="321" y="188" width="146" height="83"/><rect class="a323f625-ebc1-4fd1-9b14-49d017b6c629" x="309" y="274" width="8" height="8"/><rect class="a323f625-ebc1-4fd1-9b14-49d017b6c629" x="472" y="274" width="8" height="8"/><rect class="a323f625-ebc1-4fd1-9b14-49d017b6c629" x="387" y="274" width="8" height="8"/><rect class="a323f625-ebc1-4fd1-9b14-49d017b6c629" x="309" y="176" width="8" height="8"/><rect class="a323f625-ebc1-4fd1-9b14-49d017b6c629" x="472" y="176" width="8" height="8"/><rect class="a323f625-ebc1-4fd1-9b14-49d017b6c629" x="387" y="176" width="8" height="8"/><rect class="a22922f0-a9db-49c3-a5f1-97500edf818d" x="312" y="180" width="164" height="99"/><rect class="a323f625-ebc1-4fd1-9b14-49d017b6c629" x="20" y="178" width="8" height="8"/><rect class="a323f625-ebc1-4fd1-9b14-49d017b6c629" x="230" y="178" width="8" height="8"/><rect class="a323f625-ebc1-4fd1-9b14-49d017b6c629" x="125" y="178" width="8" height="8"/><rect class="a323f625-ebc1-4fd1-9b14-49d017b6c629" x="20" y="49" width="8" height="8"/><rect class="a323f625-ebc1-4fd1-9b14-49d017b6c629" x="230" y="49" width="8" height="8"/><rect class="a323f625-ebc1-4fd1-9b14-49d017b6c629" x="125" y="49" width="8" height="8"/><rect class="a22922f0-a9db-49c3-a5f1-97500edf818d" x="23" y="53" width="211" height="129"/><rect class="a323f625-ebc1-4fd1-9b14-49d017b6c629" x="241" y="62" width="192" height="22"/><rect class="b1bab2ee-3c22-4389-96f3-5dd27d0f46f5" x="241" y="100" width="192" height="12"/><rect class="b1bab2ee-3c22-4389-96f3-5dd27d0f46f5" x="241" y="120" width="192" height="12"/><rect class="a323f625-ebc1-4fd1-9b14-49d017b6c629" x="349" y="154" width="84" height="18"/><path class="ed52bd8d-1f90-4d2b-93b4-4c8c615c3e58" d="M117.14,103a2,2,0,0,1,3.47,0l13.71,23.74,8-13.81a2,2,0,0,1,3.46,0l9.15,15.83a2,2,0,0,1-1.74,3H134.88a2,2,0,0,1-.56-.08,2.12,2.12,0,0,1-.57.08H104a2,2,0,0,1-1.73-3Zm16,6.26a1.65,1.65,0,1,0-1.65-1.65A1.65,1.65,0,0,0,133.1,109.26Z"/><path class="b0f1f047-f140-40dd-83ec-dca9698c8f12" d="M140.12,206.61a1.19,1.19,0,0,1,2.08,0L150.45,221l4.8-8.35a1.19,1.19,0,0,1,2.08,0l5.51,9.58a1.21,1.21,0,0,1-1.05,1.81h-11a1.21,1.21,0,0,1-.34-.05,1.27,1.27,0,0,1-.34.05h-17.9a1.21,1.21,0,0,1-1.05-1.81Z"/><path class="b0f1f047-f140-40dd-83ec-dca9698c8f12" d="M149.72,210.39a1,1,0,1,0-1-1A1,1,0,0,0,149.72,210.39Z"/><path class="b0f1f047-f140-40dd-83ec-dca9698c8f12" d="M251.12,206.61a1.19,1.19,0,0,1,2.08,0L261.45,221l4.8-8.35a1.19,1.19,0,0,1,2.08,0l5.51,9.58a1.21,1.21,0,0,1-1,1.81h-11a1.21,1.21,0,0,1-.34-.05,1.27,1.27,0,0,1-.34.05h-17.9a1.21,1.21,0,0,1-1.05-1.81Z"/><path class="b0f1f047-f140-40dd-83ec-dca9698c8f12" d="M260.72,210.39a1,1,0,1,0-1-1A1,1,0,0,0,260.72,210.39Z"/><path class="b0f1f047-f140-40dd-83ec-dca9698c8f12" d="M384.1,216.87a1.73,1.73,0,0,1,3,0L399,237.61l6.9-12.07a1.73,1.73,0,0,1,3,0l7.91,13.84a1.75,1.75,0,0,1-1.5,2.62H399.45a1.53,1.53,0,0,1-.49-.07,1.61,1.61,0,0,1-.49.07H372.73a1.75,1.75,0,0,1-1.5-2.62Z"/><path class="b0f1f047-f140-40dd-83ec-dca9698c8f12" d="M397.91,222.35a1.45,1.45,0,1,0-1.43-1.45A1.44,1.44,0,0,0,397.91,222.35Z"/><path class="b0f1f047-f140-40dd-83ec-dca9698c8f12" d="M298.66,340a8,8,0,0,1,8-8H403a8,8,0,0,1,8,8v9.23H298.66Z"/><path class="ee2bff1b-3bb7-4596-9370-a776f4e4c290" d="M298.66,340a8,8,0,0,1,8-8H403a8,8,0,0,1,8,8v9.23H298.66Z"/><path class="b1bab2ee-3c22-4389-96f3-5dd27d0f46f5" d="M312.09,338.89h85.45a1.73,1.73,0,0,1,1.73,1.72h0a1.73,1.73,0,0,1-1.73,1.73H312.09a1.72,1.72,0,0,1-1.72-1.73h0A1.72,1.72,0,0,1,312.09,338.89Z"/><path class="ee2bff1b-3bb7-4596-9370-a776f4e4c290" d="M298.66,349.23H411V539a8,8,0,0,1-8,8H306.66a8,8,0,0,1-8-8Z"/><rect class="a323f625-ebc1-4fd1-9b14-49d017b6c629" x="266.96" y="360.25" width="132.31" height="75.8"/><rect class="a323f625-ebc1-4fd1-9b14-49d017b6c629" x="351.72" y="535.97" width="5.51" height="5.51"/><rect class="a323f625-ebc1-4fd1-9b14-49d017b6c629" x="420.63" y="535.97" width="5.51" height="5.51"/><rect class="a323f625-ebc1-4fd1-9b14-49d017b6c629" x="386.17" y="535.97" width="5.51" height="5.51"/><rect class="a323f625-ebc1-4fd1-9b14-49d017b6c629" x="351.72" y="511.86" width="5.51" height="5.51"/><rect class="a323f625-ebc1-4fd1-9b14-49d017b6c629" x="420.63" y="511.86" width="5.51" height="5.51"/><rect class="a323f625-ebc1-4fd1-9b14-49d017b6c629" x="386.17" y="511.86" width="5.51" height="5.51"/><rect class="a22922f0-a9db-49c3-a5f1-97500edf818d" x="354.48" y="515.3" width="68.91" height="23.43"/><rect class="a323f625-ebc1-4fd1-9b14-49d017b6c629" x="258" y="440.19" width="5.51" height="5.51"/><rect class="a323f625-ebc1-4fd1-9b14-49d017b6c629" x="402.71" y="440.19" width="5.51" height="5.51"/><rect class="a323f625-ebc1-4fd1-9b14-49d017b6c629" x="330.36" y="440.19" width="5.51" height="5.51"/><rect class="a323f625-ebc1-4fd1-9b14-49d017b6c629" x="258" y="351.3" width="5.51" height="5.51"/><rect class="a323f625-ebc1-4fd1-9b14-49d017b6c629" x="402.71" y="351.3" width="5.51" height="5.51"/><rect class="a323f625-ebc1-4fd1-9b14-49d017b6c629" x="330.36" y="351.3" width="5.51" height="5.51"/><rect class="a22922f0-a9db-49c3-a5f1-97500edf818d" x="260.07" y="354.05" width="145.4" height="88.89"/><rect class="a323f625-ebc1-4fd1-9b14-49d017b6c629" x="310.37" y="458.8" width="88.89" height="15.16"/><rect class="b1bab2ee-3c22-4389-96f3-5dd27d0f46f5" x="310.37" y="484.98" width="88.89" height="8.27"/><rect class="b1bab2ee-3c22-4389-96f3-5dd27d0f46f5" x="310.37" y="498.76" width="88.89" height="8.27"/><rect class="a323f625-ebc1-4fd1-9b14-49d017b6c629" x="359.99" y="520.81" width="57.88" height="12.4"/><path class="ed52bd8d-1f90-4d2b-93b4-4c8c615c3e58" d="M324.4,389.44a2,2,0,0,1,3.47,0l8.9,15.43,5-8.59a2,2,0,0,1,3.47,0l5.22,9.05a2,2,0,0,1-1.73,3H338.24a2,2,0,0,1-1.47-.64,1.94,1.94,0,0,1-1.46.64H317a2,2,0,0,1-1.73-3Zm11.54,3.38a1.14,1.14,0,1,0-1.14-1.14A1.14,1.14,0,0,0,335.94,392.82Z"/><path class="e12608b6-0c8b-4517-9ddc-4ddcffdf302c" d="M213.5,446c-48,12-156.5-22.5-114-150m0,0L83,311.5M99.5,296l8,17.5"/></svg>