<?xml version="1.0" encoding="utf-8"?>
<svg viewBox="0 0 50 50" width="50px" height="50px" xmlns="http://www.w3.org/2000/svg">
  <path id="path14" style="fill: rgb(30, 182, 234); fill-opacity: 1; fill-rule: nonzero; stroke: none;" d="M 40.983 49.68 L 9.093 49.68 C 4.2 49.68 0.235 45.726 0.235 40.848 L 0.235 9.046 C 0.235 4.169 4.2 0.214 9.093 0.214 L 40.983 0.214 C 45.875 0.214 49.842 4.169 49.842 9.046 L 49.842 40.848 C 49.842 45.726 45.875 49.68 40.983 49.68"/>
  <path id="path16" style="fill: rgb(255, 255, 255); fill-opacity: 1; fill-rule: nonzero; stroke: none;" d="M 11.824 33.227 C 14.222 34.761 17.073 35.657 20.134 35.657 C 30.202 35.657 35.89 27.177 35.547 19.571 C 36.607 18.809 37.526 17.858 38.253 16.773 C 37.28 17.202 36.234 17.493 35.138 17.623 C 36.257 16.956 37.118 15.897 37.523 14.632 C 36.475 15.251 35.315 15.702 34.08 15.946 C 33.09 14.894 31.682 14.238 30.12 14.238 C 26.622 14.238 24.05 17.494 24.839 20.877 C 20.333 20.652 16.336 18.499 13.662 15.226 C 12.242 17.658 12.926 20.837 15.341 22.446 C 14.45 22.418 13.615 22.174 12.884 21.77 C 12.826 24.275 14.626 26.619 17.233 27.142 C 16.471 27.348 15.634 27.394 14.786 27.233 C 15.473 29.382 17.478 30.944 19.85 30.988 C 17.571 32.771 14.7 33.566 11.824 33.227"/>
</svg>